<svg width="17" height="17" viewBox="0 0 17 17" fill="none" xmlns="http://www.w3.org/2000/svg">
<path d="M1.57807 1.89135C1.57749 1.50707 1.72908 1.14957 1.99954 0.897385C2.26999 0.645198 2.6372 0.518943 3.0205 0.546352L14.6119 1.38246C14.9952 1.41035 15.363 1.58963 15.6346 1.88091C15.9063 2.1722 16.0594 2.55168 16.0605 2.93599L16.0852 14.5575C16.0725 14.932 15.9152 15.2763 15.6461 15.518C15.3771 15.7596 15.0174 15.8798 14.6426 15.8532C14.2678 15.8257 13.9075 15.6536 13.6374 15.3731C13.3672 15.0925 13.2084 14.7254 13.1941 14.3489L13.1769 6.22757L3.05263 15.6679C2.78196 15.9203 2.41438 16.0466 2.03077 16.0189C1.64716 15.9912 1.27893 15.8119 1.0071 15.5204C0.735265 15.2289 0.582091 14.849 0.581274 14.4644C0.580457 14.0798 0.732062 13.7219 1.00274 13.4695L11.127 4.02917L3.02666 3.44488C2.64336 3.41699 2.2755 3.23772 2.00389 2.94643C1.73228 2.65514 1.57912 2.27566 1.57807 1.89135Z" fill="white"/>
</svg>
