<svg width="114" height="147" viewBox="0 0 114 147" fill="none" xmlns="http://www.w3.org/2000/svg">
<path d="M104.031 122.636H10.1251C5.64477 122.636 2 118.16 2 112.658V103.928C2 103.133 2.52477 102.489 3.17188 102.489H110.984C111.632 102.489 112.156 103.133 112.156 103.928V112.658C112.156 118.16 108.511 122.636 104.031 122.636ZM4.34375 105.367V112.658C4.34375 116.573 6.93711 119.758 10.1251 119.758H104.031C107.219 119.758 109.813 116.573 109.813 112.658V105.367H4.34375Z" fill="#2EA1FF" stroke="#2EA1FF" stroke-width="2.36"/>
<path d="M110.984 105.367H3.17188C2.52477 105.367 2 104.723 2 103.928V39.6009C2 33.0148 6.36336 27.6565 11.7266 27.6565H52.5083C53.1554 27.6565 53.6802 28.3009 53.6802 29.0956C53.6802 29.8902 53.1554 30.5347 52.5083 30.5347H11.7266C7.6557 30.5347 4.34375 34.6018 4.34375 39.6009V102.489H109.812V39.6009C109.812 34.6018 106.501 30.5347 102.43 30.5347H75.7102C75.0629 30.5347 74.5384 29.8902 74.5384 29.0956C74.5384 28.3009 75.0629 27.6565 75.7102 27.6565H102.43C107.793 27.6565 112.156 33.0148 112.156 39.6009V103.928C112.156 104.723 111.632 105.367 110.984 105.367Z" fill="#2EA1FF" stroke="#2EA1FF" stroke-width="2.36"/>
<path d="M38.6816 61.7604C38.3753 61.7604 38.076 61.6128 37.8529 61.3391C37.5479 60.9646 37.4352 60.4152 37.5592 59.9081L42.531 39.5566C42.5868 39.3283 42.6875 39.1208 42.8246 38.9524L70.1699 5.37206C71.9406 3.1976 74.2949 2 76.7987 2C79.303 2 81.6571 3.1976 83.4278 5.37206C85.1987 7.54651 86.1739 10.4376 86.1739 13.5127C86.1739 16.588 85.1987 19.4788 83.4278 21.6535L56.083 55.2336C55.9459 55.402 55.7769 55.5261 55.5911 55.5943L39.0184 61.6997C38.9075 61.7409 38.7941 61.7604 38.6816 61.7604ZM44.6907 40.7309L40.4293 58.1751L54.6346 52.9417L81.7707 19.6181C83.0987 17.987 83.8302 15.8189 83.8302 13.5127C83.8302 11.2064 83.0987 9.03797 81.7707 7.4072C80.4428 5.77615 78.677 4.87816 76.7987 4.87816C74.9207 4.87816 73.1549 5.77644 71.8269 7.4072L44.6907 40.7309Z" fill="#2EA1FF" stroke="#2EA1FF" stroke-width="2.36"/>
<path d="M47.7964 48.4779C46.4459 48.4779 45.0957 47.8467 44.0675 46.5843C42.0115 44.0593 42.0115 39.951 44.0675 37.426C44.525 36.8642 45.267 36.8642 45.7247 37.426C46.1825 37.9881 46.1825 38.899 45.7247 39.4612C44.5824 40.864 44.5824 43.1463 45.7247 44.5492C46.8671 45.952 48.7257 45.952 49.868 44.5492C50.326 43.9873 51.0678 43.9876 51.5253 44.5492C51.983 45.1113 51.983 46.0225 51.5253 46.5843C50.4973 47.8467 49.1468 48.4779 47.7964 48.4779Z" fill="#2EA1FF" stroke="#2EA1FF" stroke-width="2.36"/>
<path d="M53.5969 55.6041C52.1883 55.6041 50.8641 54.9303 49.868 53.7074C48.8719 52.4845 48.3235 50.858 48.3235 49.1282C48.3235 47.3985 48.8722 45.772 49.868 44.5491L64.4527 26.6391C64.91 26.0773 65.6525 26.0773 66.1097 26.6391C66.5675 27.2012 66.5675 28.1125 66.1097 28.6743L51.5253 46.5842C50.9719 47.2638 50.667 48.1672 50.667 49.1282C50.667 50.089 50.9717 50.9927 51.5253 51.672C52.0786 52.3515 52.8143 52.7259 53.5967 52.7259C54.3793 52.7259 55.115 52.3518 55.6683 51.672C56.1258 51.1101 56.8681 51.1101 57.3256 51.672C57.7833 52.2341 57.7833 53.145 57.3258 53.7071C56.33 54.9303 55.0055 55.6041 53.5969 55.6041Z" fill="#2EA1FF" stroke="#2EA1FF" stroke-width="2.36"/>
<path d="M79.2849 26.1452C78.9851 26.1452 78.6849 26.0047 78.4564 25.7238L66.8553 11.4775C66.3975 10.9154 66.3975 10.0042 66.8553 9.44236C67.3125 8.88054 68.055 8.88054 68.5123 9.44236L80.1134 23.6887C80.5711 24.2508 80.5711 25.162 80.1134 25.7238C79.8849 26.0047 79.5846 26.1452 79.2849 26.1452Z" fill="#2EA1FF" stroke="#2EA1FF" stroke-width="2.36"/>
<path d="M82.8593 90.9761H64.1093C60.2323 90.9761 57.0781 87.1027 57.0781 82.3417C57.0781 77.5806 60.2323 73.7072 64.1093 73.7072H89.8906C92.4753 73.7072 94.5781 71.1249 94.5781 67.9508V67.5168C94.5781 64.3428 92.4753 61.7605 89.8906 61.7605H38.6815C38.0344 61.7605 37.5096 61.1161 37.5096 60.3214C37.5096 59.5267 38.0344 58.8823 38.6815 58.8823H89.8906C93.7676 58.8823 96.9218 62.7558 96.9218 67.5168V67.9508C96.9218 72.7119 93.7676 76.5853 89.8906 76.5853H64.1093C61.5246 76.5853 59.4218 79.1676 59.4218 82.3417C59.4218 85.5157 61.5246 88.098 64.1093 88.098H82.8593C83.5067 88.098 84.0312 88.7421 84.0312 89.5371C84.0312 90.332 83.5067 90.9761 82.8593 90.9761Z" fill="#2EA1FF" stroke="#2EA1FF" stroke-width="2.36"/>
<path d="M38.3281 92.4153H3.17188C2.52477 92.4153 2 91.7711 2 90.9762C2 90.1812 2.52477 89.5371 3.17188 89.5371H38.3281C38.9752 89.5371 39.5 90.1812 39.5 90.9762C39.5 91.7711 38.9752 92.4153 38.3281 92.4153Z" fill="#2EA1FF" stroke="#2EA1FF" stroke-width="2.36"/>
<path d="M38.3281 83.7808H3.17188C2.52477 83.7808 2 83.1366 2 82.3417C2 81.5467 2.52477 80.9026 3.17188 80.9026H38.3281C38.9752 80.9026 39.5 81.5467 39.5 82.3417C39.5 83.1366 38.9752 83.7808 38.3281 83.7808Z" fill="#2EA1FF" stroke="#2EA1FF" stroke-width="2.36"/>
<path d="M38.3281 75.1462H3.17188C2.52477 75.1462 2 74.5021 2 73.7071C2 72.9125 2.52477 72.2681 3.17188 72.2681H38.3281C38.9752 72.2681 39.5 72.9125 39.5 73.7071C39.5 74.5021 38.9752 75.1462 38.3281 75.1462Z" fill="#2EA1FF" stroke="#2EA1FF" stroke-width="2.36"/>
<path d="M69.9688 139.905H44.1875C43.5404 139.905 43.0156 139.261 43.0156 138.466V121.197C43.0156 120.402 43.5404 119.758 44.1875 119.758H69.9688C70.6161 119.758 71.1406 120.402 71.1406 121.197V138.466C71.1406 139.261 70.6161 139.905 69.9688 139.905ZM45.3594 137.027H68.7969V122.636H45.3594V137.027Z" fill="#2EA1FF" stroke="#2EA1FF" stroke-width="2.36"/>
<path d="M64.1094 139.905H50.0469C49.3998 139.905 48.875 139.261 48.875 138.466V121.197C48.875 120.402 49.3998 119.758 50.0469 119.758H64.1094C64.7567 119.758 65.2812 120.402 65.2812 121.197V138.466C65.2812 139.261 64.7567 139.905 64.1094 139.905ZM51.2188 137.027H62.9375V122.636H51.2188V137.027Z" fill="#2EA1FF" stroke="#2EA1FF" stroke-width="2.36"/>
<path d="M73.4844 145.661H40.6719C38.7334 145.661 37.1562 143.725 37.1562 141.344C37.1562 138.964 38.7334 137.027 40.6719 137.027H73.4844C75.4229 137.027 77 138.964 77 141.344C77 143.725 75.4229 145.661 73.4844 145.661ZM40.6719 139.905C40.0257 139.905 39.5 140.551 39.5 141.344C39.5 142.138 40.0257 142.783 40.6719 142.783H73.4844C74.1305 142.783 74.6562 142.138 74.6562 141.344C74.6562 140.551 74.1305 139.905 73.4844 139.905H40.6719Z" fill="#2EA1FF" stroke="#2EA1FF" stroke-width="2.36"/>
</svg>
