<svg width="120" height="100" viewBox="0 0 120 100" fill="none" xmlns="http://www.w3.org/2000/svg">
<path d="M80.8406 86.2124C80.2188 85.873 79.677 85.4181 79.2464 84.8668C79.0475 84.6125 78.8794 84.3437 78.7403 84.0659H8.08192V21.6019H103.99V62.3887C106.038 62.5545 107.756 63.7606 108.477 65.4122C109.116 65.0982 109.828 64.9042 110.576 64.845C111.082 64.8055 111.585 64.8337 112.072 64.9201V6.0407C112.072 2.70984 109.051 0 105.338 0H6.73484C3.02136 0 0 2.70984 0 6.0407V85.2743C0 88.6052 3.02136 91.3148 6.73484 91.3148H80.2268C79.6533 90.2731 79.5173 89.0973 79.8547 87.966C80.0493 87.3152 80.386 86.7216 80.8406 86.2124ZM96.5947 10.1435C96.5947 8.91175 97.708 7.91296 99.0814 7.91296H101.568C102.942 7.91296 104.055 8.91149 104.055 10.1435V12.6714C104.055 13.9032 102.941 14.9017 101.568 14.9017H99.0814C97.7077 14.9017 96.5947 13.9032 96.5947 12.6714V10.1435ZM85.0313 10.1435C85.0313 8.91175 86.1446 7.91296 87.518 7.91296H90.005C91.3787 7.91296 92.4917 8.91149 92.4917 10.1435V12.6714C92.4917 13.9032 91.3784 14.9017 90.005 14.9017H87.518C86.1446 14.9017 85.0313 13.9032 85.0313 12.6714V10.1435ZM73.4677 10.1435C73.4677 8.91175 74.5813 7.91296 75.9544 7.91296H78.4411C79.8147 7.91296 80.9281 8.91149 80.9281 10.1435V12.6714C80.9281 13.9032 79.8147 14.9017 78.4411 14.9017H75.9544C74.5813 14.9017 73.4677 13.9032 73.4677 12.6714V10.1435Z" fill="#2EA1FF" stroke="#2EA1FF" stroke-width="0.00800002"/>
<path d="M119.984 81.9586L119.237 78.1577C119.136 77.6458 118.592 77.3039 118.021 77.3942L114.252 77.9898C113.8 77.0376 113.222 76.1457 112.536 75.3294L114.998 72.6977C115.177 72.5071 115.264 72.2597 115.24 72.0109C115.216 71.762 115.082 71.5324 114.869 71.3717L111.573 68.8907C111.359 68.7302 111.083 68.6523 110.806 68.6741C110.528 68.6959 110.272 68.8156 110.094 69.0068L107.634 71.6364C106.625 71.1751 105.545 70.8193 104.413 70.5846V67.1522C104.413 66.6324 103.943 66.2106 103.364 66.2106H99.0602C98.481 66.2106 98.0106 66.6324 98.0106 67.1522V70.5846C96.8787 70.8191 95.8 71.1751 94.7898 71.6364L92.33 69.007C91.9573 68.6088 91.2955 68.557 90.8512 68.8909L87.5549 71.3717C87.3417 71.5324 87.2083 71.762 87.1837 72.0109C87.1597 72.2597 87.2466 72.5073 87.4254 72.6985L89.8873 75.3297C89.2026 76.1457 88.6236 77.0382 88.1713 77.99L84.4027 77.3942C83.8328 77.3042 83.2879 77.6458 83.1867 78.1577L82.4398 81.9586C82.3915 82.2044 82.454 82.4571 82.6132 82.6619C82.7735 82.8666 83.0161 83.0058 83.2905 83.0491L87.062 83.6453C87.1234 84.6933 87.3269 85.7072 87.6543 86.6727L84.3395 88.3886C84.0983 88.5129 83.9226 88.719 83.8503 88.9599C83.7783 89.2011 83.8163 89.4579 83.9552 89.6742L86.1067 93.0166C86.2452 93.2329 86.475 93.3905 86.7436 93.4551C86.8331 93.4766 86.9242 93.4871 87.0154 93.4871C87.198 93.4871 87.3789 93.4446 87.54 93.361L90.8574 91.6431C91.6376 92.3927 92.5183 93.0571 93.4807 93.6189L92.1708 96.8464C92.0759 97.0812 92.0882 97.3401 92.206 97.5664C92.3237 97.7927 92.5366 97.9677 92.7981 98.0528L96.841 99.3725C96.957 99.4104 97.0788 99.4299 97.2002 99.4299C97.3517 99.4299 97.504 99.4004 97.6443 99.3415C97.8966 99.2362 98.0912 99.045 98.1864 98.8102L99.496 95.5826C100.058 95.6436 100.629 95.6751 101.209 95.6751C101.789 95.6751 102.36 95.6431 102.922 95.5826L104.232 98.8102C104.327 99.045 104.522 99.2362 104.774 99.3415C104.914 99.4002 105.066 99.4299 105.218 99.4299C105.339 99.4299 105.461 99.4109 105.577 99.3725L109.62 98.0528C109.881 97.9677 110.094 97.7922 110.212 97.5664C110.33 97.3401 110.342 97.0812 110.247 96.8464L108.937 93.6194C109.899 93.0576 110.779 92.3927 111.56 91.6436L114.878 93.3615C115.039 93.4446 115.22 93.4876 115.402 93.4876C115.493 93.4876 115.585 93.4766 115.674 93.4556C115.943 93.391 116.172 93.2329 116.311 93.0171L118.463 89.6742C118.601 89.4584 118.639 89.2011 118.567 88.9599C118.495 88.7195 118.319 88.5134 118.078 88.3886L114.764 86.6732C115.091 85.7074 115.294 84.6935 115.356 83.6458L119.127 83.0494C119.402 83.0061 119.645 82.8669 119.805 82.6621C119.97 82.4571 120.033 82.2044 119.984 81.9586ZM101.212 87.9985C98.0246 87.9985 95.4399 85.6803 95.4399 82.821C95.4399 79.9618 98.0249 77.6438 101.212 77.6438C104.4 77.6438 106.985 79.9618 106.985 82.821C106.985 85.6803 104.4 87.9985 101.212 87.9985Z" fill="#2EA1FF" stroke="#2EA1FF" stroke-width="0.00800002"/>
<path d="M47.0635 56.227C47.0635 55.009 46.2677 53.8903 45.0358 53.3772L33.761 48.6787L45.0361 43.9798C46.2677 43.4661 47.0635 42.3476 47.0635 41.1302V41.0485C47.0635 39.9695 46.458 38.9789 45.4447 38.3999C44.884 38.0787 44.2311 37.9088 43.557 37.9088C43.0489 37.9088 42.5388 38.009 42.0824 38.1992L24.0571 45.7172C22.8258 46.2308 22.0305 47.3493 22.0305 48.5665V48.7912C22.0305 50.0069 22.8255 51.1246 24.0574 51.6408L42.0844 59.1595C42.5505 59.353 43.0469 59.4512 43.5595 59.4512C44.2276 59.4512 44.8786 59.281 45.4447 58.9581C46.4586 58.3768 47.0638 57.387 47.0638 56.3092L47.0635 56.227Z" fill="#2EA1FF" stroke="#2EA1FF" stroke-width="0.00800002"/>
<path d="M64.8486 30.2483C64.191 29.4409 63.1334 28.9591 62.0192 28.9591H61.9295C60.3995 28.9591 59.0582 29.8369 58.5921 31.1417L46.7158 64.1458C46.3778 65.0987 46.5681 66.1483 47.2248 66.9553C47.8823 67.7622 48.9399 68.2443 50.0541 68.2443H50.1441C51.6735 68.2443 53.014 67.3662 53.4795 66.0616L65.3544 33.0601C65.6956 32.108 65.5064 31.0569 64.8486 30.2483Z" fill="#2EA1FF" stroke="#2EA1FF" stroke-width="0.00800002"/>
<path d="M88.015 45.7169L69.9894 38.1989C69.5345 38.0093 69.0253 37.9091 68.5172 37.9091C67.8433 37.9091 67.1901 38.0785 66.6297 38.3991C65.6147 38.9791 65.0092 39.9694 65.0092 41.0485V41.1302C65.0092 42.3466 65.8044 43.4654 67.0372 43.981L78.3117 48.679L67.0369 53.3772C65.805 53.8903 65.0092 55.009 65.0092 56.227V56.3092C65.0092 57.387 65.6147 58.3765 66.6291 58.9583C67.1932 59.2808 67.8448 59.4512 68.5137 59.4512C69.0258 59.4512 69.5216 59.353 69.9908 59.1588L88.0173 51.64C89.2481 51.1251 90.0427 50.0071 90.0427 48.7915V48.5667C90.0419 47.3493 89.2466 46.2308 88.015 45.7169Z" fill="#2EA1FF" stroke="#2EA1FF" stroke-width="0.00800002"/>
</svg>
