<svg width="226" height="60" viewBox="0 0 226 60" fill="none" xmlns="http://www.w3.org/2000/svg">
<circle cx="30" cy="30" r="29.5" stroke="white"/>
<circle cx="113" cy="30" r="29.5" stroke="white"/>
<circle cx="196" cy="30" r="29.5" stroke="white"/>
<path d="M39.9777 11.2094V17.5568H36.4732C35.1934 17.5568 34.3303 17.8453 33.8839 18.4223C33.4375 18.9993 33.2143 19.8649 33.2143 21.0189V25.5631H39.7545L38.8839 32.6798H33.2143V50.9284H26.3839V32.6798H20.692V25.5631H26.3839V20.3217C26.3839 17.3404 27.1577 15.0282 28.7053 13.3853C30.253 11.7424 32.314 10.9209 34.8884 10.9209C37.0759 10.9209 38.7723 11.0171 39.9777 11.2094Z" fill="white"/>
<path d="M113 15.9219C108.929 15.9219 108.418 15.9406 106.818 16.0119C105.219 16.0869 104.129 16.3382 103.175 16.7095C102.174 17.0861 101.267 17.6769 100.518 18.4405C99.7551 19.19 99.1646 20.0969 98.7875 21.0978C98.4162 22.0505 98.1631 23.142 98.09 24.736C98.0188 26.3395 98 26.8495 98 30.9266C98 34.9998 98.0188 35.5099 98.09 37.1096C98.165 38.7074 98.4162 39.797 98.7875 40.7515C99.1719 41.738 99.6838 42.5744 100.518 43.4089C101.351 44.2434 102.187 44.7573 103.173 45.1399C104.129 45.5112 105.217 45.7643 106.814 45.8375C108.416 45.9087 108.926 45.9275 113 45.9275C117.074 45.9275 117.583 45.9087 119.184 45.8375C120.779 45.7625 121.872 45.5112 122.827 45.1399C123.827 44.7631 124.733 44.1723 125.482 43.4089C126.316 42.5744 126.828 41.738 127.212 40.7515C127.582 39.797 127.835 38.7074 127.91 37.1096C127.981 35.5099 128 34.9998 128 30.9247C128 26.8495 127.981 26.3395 127.91 24.7379C127.835 23.142 127.582 22.0505 127.212 21.0978C126.835 20.0968 126.245 19.19 125.482 18.4405C124.733 17.6766 123.826 17.0858 122.825 16.7095C121.869 16.3382 120.778 16.085 119.182 16.0119C117.581 15.9406 117.073 15.9219 112.996 15.9219H113.002H113ZM111.656 18.6261H113.002C117.007 18.6261 117.481 18.6393 119.062 18.7124C120.524 18.778 121.319 19.0237 121.848 19.2281C122.548 19.5 123.048 19.8264 123.573 20.3515C124.098 20.8766 124.423 21.3754 124.694 22.0768C124.901 22.6038 125.144 23.3989 125.21 24.8617C125.283 26.4426 125.298 26.9171 125.298 30.9209C125.298 34.9248 125.283 35.4011 125.21 36.9821C125.144 38.4448 124.899 39.2381 124.694 39.767C124.454 40.4184 124.07 41.0074 123.571 41.4904C123.046 42.0155 122.548 42.34 121.846 42.6119C121.321 42.8182 120.526 43.062 119.062 43.1295C117.481 43.2007 117.007 43.2176 113.002 43.2176C108.997 43.2176 108.521 43.2007 106.94 43.1295C105.478 43.062 104.684 42.8182 104.156 42.6119C103.504 42.3717 102.915 41.9885 102.431 41.4904C101.931 41.0066 101.547 40.4171 101.306 39.7651C101.101 39.2381 100.856 38.443 100.79 36.9802C100.719 35.3993 100.704 34.9248 100.704 30.9172C100.704 26.9114 100.719 26.4388 100.79 24.8579C100.858 23.3952 101.101 22.6 101.308 22.0712C101.579 21.3716 101.906 20.8709 102.431 20.3458C102.956 19.8207 103.454 19.4963 104.156 19.2244C104.684 19.0181 105.478 18.7743 106.94 18.7068C108.324 18.643 108.86 18.6243 111.656 18.6224V18.6261ZM121.008 21.1166C120.772 21.1166 120.538 21.1632 120.319 21.2536C120.101 21.3441 119.902 21.4767 119.735 21.6439C119.568 21.8111 119.436 22.0095 119.345 22.228C119.255 22.4464 119.208 22.6805 119.208 22.9169C119.208 23.1534 119.255 23.3875 119.345 23.6059C119.436 23.8243 119.568 24.0228 119.735 24.19C119.902 24.3571 120.101 24.4898 120.319 24.5802C120.538 24.6707 120.772 24.7173 121.008 24.7173C121.486 24.7173 121.943 24.5276 122.281 24.19C122.618 23.8523 122.808 23.3944 122.808 22.9169C122.808 22.4395 122.618 21.9815 122.281 21.6439C121.943 21.3063 121.486 21.1166 121.008 21.1166ZM113.002 23.2207C111.98 23.2048 110.965 23.3923 110.017 23.7724C109.068 24.1524 108.205 24.7174 107.477 25.4345C106.748 26.1515 106.17 27.0063 105.775 27.949C105.381 28.8917 105.177 29.9036 105.177 30.9256C105.177 31.9477 105.381 32.9595 105.775 33.9023C106.17 34.845 106.748 35.6998 107.477 36.4168C108.205 37.1338 109.068 37.6988 110.017 38.0789C110.965 38.4589 111.98 38.6465 113.002 38.6305C115.024 38.5989 116.953 37.7733 118.372 36.3318C119.791 34.8903 120.586 32.9485 120.586 30.9256C120.586 28.9027 119.791 26.961 118.372 25.5195C116.953 24.0779 115.024 23.2523 113.002 23.2207ZM113.002 25.9231C114.328 25.9231 115.6 26.4501 116.538 27.388C117.476 28.326 118.003 29.5982 118.003 30.9247C118.003 32.2512 117.476 33.5233 116.538 34.4613C115.6 35.3993 114.328 35.9262 113.002 35.9262C111.676 35.9262 110.404 35.3993 109.466 34.4613C108.528 33.5233 108.001 32.2512 108.001 30.9247C108.001 29.5982 108.528 28.326 109.466 27.388C110.404 26.4501 111.676 25.9231 113.002 25.9231Z" fill="white"/>
<path d="M209.075 23.4233C208.112 23.8609 207.075 24.1485 206 24.286C207.1 23.6234 207.95 22.5732 208.35 21.3104C207.312 21.9355 206.162 22.3731 204.95 22.6232C203.962 21.548 202.575 20.9229 201 20.9229C198.062 20.9229 195.662 23.3233 195.662 26.2864C195.662 26.7114 195.712 27.124 195.8 27.5116C191.35 27.2865 187.387 25.1486 184.75 21.9105C184.287 22.6982 184.025 23.6234 184.025 24.5985C184.025 26.4614 184.962 28.1117 186.412 29.0494C185.525 29.0494 184.7 28.7993 183.975 28.4243V28.4618C183.975 31.0623 185.825 33.2377 188.275 33.7253C187.488 33.9406 186.663 33.9705 185.862 33.8128C186.202 34.8786 186.867 35.8112 187.764 36.4794C188.661 37.1477 189.744 37.5181 190.862 37.5385C188.967 39.0393 186.617 39.8505 184.2 39.8389C183.775 39.8389 183.35 39.8139 182.925 39.7639C185.3 41.2892 188.125 42.1768 191.15 42.1768C201 42.1768 206.412 34.0003 206.412 26.9115C206.412 26.6739 206.412 26.4489 206.4 26.2113C207.45 25.4612 208.35 24.511 209.075 23.4233Z" fill="white"/>
</svg>
